<mxfile host="app.diagrams.net" agent="Mozilla/5.0 (Windows NT 10.0; Win64; x64) AppleWebKit/537.36 (KHTML, like Gecko) Chrome/131.0.0.0 Safari/537.36" version="26.0.4">
  <diagram name="Page-1" id="FN53Z2y1icvw87rAyF_7">
    <mxGraphModel dx="3338" dy="2336" grid="1" gridSize="10" guides="1" tooltips="1" connect="1" arrows="1" fold="1" page="1" pageScale="1" pageWidth="850" pageHeight="1100" math="0" shadow="0">
      <root>
        <mxCell id="0" />
        <mxCell id="1" parent="0" />
        <mxCell id="eDERNk1VhSb31Y4Ctlhb-1" value="Library Member" style="shape=umlLifeline;perimeter=lifelinePerimeter;whiteSpace=wrap;container=1;dropTarget=0;collapsible=0;recursiveResize=0;outlineConnect=0;portConstraint=eastwest;newEdgeStyle={&quot;edgeStyle&quot;:&quot;elbowEdgeStyle&quot;,&quot;elbow&quot;:&quot;vertical&quot;,&quot;curved&quot;:0,&quot;rounded&quot;:0};participant=umlActor;verticalAlign=bottom;labelPosition=center;verticalLabelPosition=top;align=center;size=65;" vertex="1" parent="1">
          <mxGeometry x="20" y="20" width="35" height="1040" as="geometry" />
        </mxCell>
        <mxCell id="eDERNk1VhSb31Y4Ctlhb-2" value="Web Application" style="shape=umlLifeline;perimeter=lifelinePerimeter;whiteSpace=wrap;container=1;dropTarget=0;collapsible=0;recursiveResize=0;outlineConnect=0;portConstraint=eastwest;newEdgeStyle={&quot;edgeStyle&quot;:&quot;elbowEdgeStyle&quot;,&quot;elbow&quot;:&quot;vertical&quot;,&quot;curved&quot;:0,&quot;rounded&quot;:0};size=65;" vertex="1" parent="1">
          <mxGeometry x="315" y="20" width="150" height="1040" as="geometry" />
        </mxCell>
        <mxCell id="eDERNk1VhSb31Y4Ctlhb-3" value="API Server" style="shape=umlLifeline;perimeter=lifelinePerimeter;whiteSpace=wrap;container=1;dropTarget=0;collapsible=0;recursiveResize=0;outlineConnect=0;portConstraint=eastwest;newEdgeStyle={&quot;edgeStyle&quot;:&quot;elbowEdgeStyle&quot;,&quot;elbow&quot;:&quot;vertical&quot;,&quot;curved&quot;:0,&quot;rounded&quot;:0};size=65;" vertex="1" parent="1">
          <mxGeometry x="606" y="20" width="150" height="1030" as="geometry" />
        </mxCell>
        <mxCell id="eDERNk1VhSb31Y4Ctlhb-4" value="Controller" style="shape=umlLifeline;perimeter=lifelinePerimeter;whiteSpace=wrap;container=1;dropTarget=0;collapsible=0;recursiveResize=0;outlineConnect=0;portConstraint=eastwest;newEdgeStyle={&quot;edgeStyle&quot;:&quot;elbowEdgeStyle&quot;,&quot;elbow&quot;:&quot;vertical&quot;,&quot;curved&quot;:0,&quot;rounded&quot;:0};size=65;" vertex="1" parent="1">
          <mxGeometry x="948" y="20" width="150" height="1030" as="geometry" />
        </mxCell>
        <mxCell id="eDERNk1VhSb31Y4Ctlhb-5" value="Service" style="shape=umlLifeline;perimeter=lifelinePerimeter;whiteSpace=wrap;container=1;dropTarget=0;collapsible=0;recursiveResize=0;outlineConnect=0;portConstraint=eastwest;newEdgeStyle={&quot;edgeStyle&quot;:&quot;elbowEdgeStyle&quot;,&quot;elbow&quot;:&quot;vertical&quot;,&quot;curved&quot;:0,&quot;rounded&quot;:0};size=65;" vertex="1" parent="1">
          <mxGeometry x="1286" y="20" width="150" height="1020" as="geometry" />
        </mxCell>
        <mxCell id="eDERNk1VhSb31Y4Ctlhb-6" value="DAL" style="shape=umlLifeline;perimeter=lifelinePerimeter;whiteSpace=wrap;container=1;dropTarget=0;collapsible=0;recursiveResize=0;outlineConnect=0;portConstraint=eastwest;newEdgeStyle={&quot;edgeStyle&quot;:&quot;elbowEdgeStyle&quot;,&quot;elbow&quot;:&quot;vertical&quot;,&quot;curved&quot;:0,&quot;rounded&quot;:0};size=65;" vertex="1" parent="1">
          <mxGeometry x="1620" y="20" width="150" height="1020" as="geometry" />
        </mxCell>
        <mxCell id="eDERNk1VhSb31Y4Ctlhb-7" value="Database" style="shape=umlLifeline;perimeter=lifelinePerimeter;whiteSpace=wrap;container=1;dropTarget=0;collapsible=0;recursiveResize=0;outlineConnect=0;portConstraint=eastwest;newEdgeStyle={&quot;edgeStyle&quot;:&quot;elbowEdgeStyle&quot;,&quot;elbow&quot;:&quot;vertical&quot;,&quot;curved&quot;:0,&quot;rounded&quot;:0};size=65;" vertex="1" parent="1">
          <mxGeometry x="2392" y="20" width="150" height="1020" as="geometry" />
        </mxCell>
        <mxCell id="eDERNk1VhSb31Y4Ctlhb-8" value="NotificationService" style="shape=umlLifeline;perimeter=lifelinePerimeter;whiteSpace=wrap;container=1;dropTarget=0;collapsible=0;recursiveResize=0;outlineConnect=0;portConstraint=eastwest;newEdgeStyle={&quot;edgeStyle&quot;:&quot;elbowEdgeStyle&quot;,&quot;elbow&quot;:&quot;vertical&quot;,&quot;curved&quot;:0,&quot;rounded&quot;:0};size=65;" vertex="1" parent="1">
          <mxGeometry x="2592" y="20" width="153" height="1010" as="geometry" />
        </mxCell>
        <mxCell id="eDERNk1VhSb31Y4Ctlhb-9" value="Initiate return process" style="verticalAlign=bottom;edgeStyle=elbowEdgeStyle;elbow=vertical;curved=0;rounded=0;endArrow=block;" edge="1" parent="1">
          <mxGeometry relative="1" as="geometry">
            <Array as="points">
              <mxPoint x="251" y="160" />
            </Array>
            <mxPoint x="36" y="160" as="sourcePoint" />
            <mxPoint x="390" y="160" as="targetPoint" />
          </mxGeometry>
        </mxCell>
        <mxCell id="eDERNk1VhSb31Y4Ctlhb-10" value="Send return request" style="verticalAlign=bottom;edgeStyle=elbowEdgeStyle;elbow=vertical;curved=0;rounded=0;endArrow=block;" edge="1" parent="1">
          <mxGeometry relative="1" as="geometry">
            <Array as="points">
              <mxPoint x="544" y="214" />
            </Array>
            <mxPoint x="389" y="214" as="sourcePoint" />
            <mxPoint x="681" y="214" as="targetPoint" />
          </mxGeometry>
        </mxCell>
        <mxCell id="eDERNk1VhSb31Y4Ctlhb-11" value="Route request" style="verticalAlign=bottom;edgeStyle=elbowEdgeStyle;elbow=vertical;curved=0;rounded=0;endArrow=block;" edge="1" parent="1">
          <mxGeometry relative="1" as="geometry">
            <Array as="points">
              <mxPoint x="861" y="268" />
            </Array>
            <mxPoint x="680" y="268" as="sourcePoint" />
            <mxPoint x="1022" y="268" as="targetPoint" />
          </mxGeometry>
        </mxCell>
        <mxCell id="eDERNk1VhSb31Y4Ctlhb-12" value="Process return" style="verticalAlign=bottom;edgeStyle=elbowEdgeStyle;elbow=vertical;curved=0;rounded=0;endArrow=block;" edge="1" parent="1">
          <mxGeometry relative="1" as="geometry">
            <Array as="points">
              <mxPoint x="1201" y="322" />
            </Array>
            <mxPoint x="1022" y="322" as="sourcePoint" />
            <mxPoint x="1361" y="322" as="targetPoint" />
          </mxGeometry>
        </mxCell>
        <mxCell id="eDERNk1VhSb31Y4Ctlhb-13" value="Update borrowing record as returned" style="verticalAlign=bottom;edgeStyle=elbowEdgeStyle;elbow=vertical;curved=0;rounded=0;endArrow=block;" edge="1" parent="1">
          <mxGeometry relative="1" as="geometry">
            <Array as="points">
              <mxPoint x="1537" y="376" />
            </Array>
            <mxPoint x="1360" y="376" as="sourcePoint" />
            <mxPoint x="1694" y="376" as="targetPoint" />
          </mxGeometry>
        </mxCell>
        <mxCell id="eDERNk1VhSb31Y4Ctlhb-14" value="UPDATE borrowing_request SET return_date = NOW(), status = &#39;returned&#39; WHERE request_id = &lt;id&gt;" style="verticalAlign=bottom;edgeStyle=elbowEdgeStyle;elbow=vertical;curved=0;rounded=0;endArrow=block;" edge="1" parent="1">
          <mxGeometry relative="1" as="geometry">
            <Array as="points">
              <mxPoint x="2090" y="430" />
            </Array>
            <mxPoint x="1694" y="430" as="sourcePoint" />
            <mxPoint x="2467" y="430" as="targetPoint" />
          </mxGeometry>
        </mxCell>
        <mxCell id="eDERNk1VhSb31Y4Ctlhb-15" value="Confirm update" style="verticalAlign=bottom;edgeStyle=elbowEdgeStyle;elbow=vertical;curved=0;rounded=0;dashed=1;dashPattern=2 3;endArrow=block;" edge="1" parent="1">
          <mxGeometry relative="1" as="geometry">
            <Array as="points">
              <mxPoint x="2093" y="484" />
            </Array>
            <mxPoint x="2467" y="484" as="sourcePoint" />
            <mxPoint x="1694" y="484" as="targetPoint" />
          </mxGeometry>
        </mxCell>
        <mxCell id="eDERNk1VhSb31Y4Ctlhb-16" value="Query overdue status" style="verticalAlign=bottom;edgeStyle=elbowEdgeStyle;elbow=vertical;curved=0;rounded=0;dashed=1;dashPattern=2 3;endArrow=block;" edge="1" parent="1">
          <mxGeometry relative="1" as="geometry">
            <Array as="points">
              <mxPoint x="1540" y="538" />
            </Array>
            <mxPoint x="1694" y="538" as="sourcePoint" />
            <mxPoint x="1360" y="538" as="targetPoint" />
          </mxGeometry>
        </mxCell>
        <mxCell id="eDERNk1VhSb31Y4Ctlhb-17" value="SELECT * FROM fine WHERE member_id = &lt;id&gt;" style="verticalAlign=bottom;edgeStyle=elbowEdgeStyle;elbow=vertical;curved=0;rounded=0;endArrow=block;" edge="1" parent="1">
          <mxGeometry relative="1" as="geometry">
            <Array as="points">
              <mxPoint x="2090" y="592" />
            </Array>
            <mxPoint x="1694" y="592" as="sourcePoint" />
            <mxPoint x="2467" y="592" as="targetPoint" />
          </mxGeometry>
        </mxCell>
        <mxCell id="eDERNk1VhSb31Y4Ctlhb-18" value="Return overdue fine details" style="verticalAlign=bottom;edgeStyle=elbowEdgeStyle;elbow=vertical;curved=0;rounded=0;dashed=1;dashPattern=2 3;endArrow=block;" edge="1" parent="1">
          <mxGeometry relative="1" as="geometry">
            <Array as="points">
              <mxPoint x="2093" y="646" />
            </Array>
            <mxPoint x="2467" y="646" as="sourcePoint" />
            <mxPoint x="1694" y="646" as="targetPoint" />
          </mxGeometry>
        </mxCell>
        <mxCell id="eDERNk1VhSb31Y4Ctlhb-19" value="Notify user of fines" style="verticalAlign=bottom;edgeStyle=elbowEdgeStyle;elbow=vertical;curved=0;rounded=0;dashed=1;dashPattern=2 3;endArrow=block;" edge="1" parent="1">
          <mxGeometry relative="1" as="geometry">
            <Array as="points">
              <mxPoint x="1204" y="700" />
            </Array>
            <mxPoint x="1361" y="700" as="sourcePoint" />
            <mxPoint x="1022" y="700" as="targetPoint" />
          </mxGeometry>
        </mxCell>
        <mxCell id="eDERNk1VhSb31Y4Ctlhb-20" value="Send overdue fine notification (if any)" style="verticalAlign=bottom;edgeStyle=elbowEdgeStyle;elbow=vertical;curved=0;rounded=0;endArrow=block;" edge="1" parent="1">
          <mxGeometry relative="1" as="geometry">
            <Array as="points">
              <mxPoint x="1854" y="754" />
            </Array>
            <mxPoint x="1022" y="754" as="sourcePoint" />
            <mxPoint x="2668" y="754" as="targetPoint" />
          </mxGeometry>
        </mxCell>
        <mxCell id="eDERNk1VhSb31Y4Ctlhb-21" value="Save notification" style="verticalAlign=bottom;edgeStyle=elbowEdgeStyle;elbow=vertical;curved=0;rounded=0;endArrow=block;" edge="1" parent="1">
          <mxGeometry relative="1" as="geometry">
            <Array as="points">
              <mxPoint x="2193" y="808" />
            </Array>
            <mxPoint x="2668" y="808" as="sourcePoint" />
            <mxPoint x="1694" y="808" as="targetPoint" />
          </mxGeometry>
        </mxCell>
        <mxCell id="eDERNk1VhSb31Y4Ctlhb-22" value="INSERT INTO notification (...)" style="verticalAlign=bottom;edgeStyle=elbowEdgeStyle;elbow=vertical;curved=0;rounded=0;endArrow=block;" edge="1" parent="1">
          <mxGeometry relative="1" as="geometry">
            <Array as="points">
              <mxPoint x="2090" y="862" />
            </Array>
            <mxPoint x="1694" y="862" as="sourcePoint" />
            <mxPoint x="2467" y="862" as="targetPoint" />
          </mxGeometry>
        </mxCell>
        <mxCell id="eDERNk1VhSb31Y4Ctlhb-23" value="Confirm notification" style="verticalAlign=bottom;edgeStyle=elbowEdgeStyle;elbow=vertical;curved=0;rounded=0;dashed=1;dashPattern=2 3;endArrow=block;" edge="1" parent="1">
          <mxGeometry relative="1" as="geometry">
            <Array as="points">
              <mxPoint x="2093" y="916" />
            </Array>
            <mxPoint x="2467" y="916" as="sourcePoint" />
            <mxPoint x="1694" y="916" as="targetPoint" />
          </mxGeometry>
        </mxCell>
        <mxCell id="eDERNk1VhSb31Y4Ctlhb-24" value="Return confirmation/fine notification" style="verticalAlign=bottom;edgeStyle=elbowEdgeStyle;elbow=vertical;curved=0;rounded=0;dashed=1;dashPattern=2 3;endArrow=block;" edge="1" parent="1">
          <mxGeometry relative="1" as="geometry">
            <Array as="points">
              <mxPoint x="1393" y="970" />
            </Array>
            <mxPoint x="2668" y="970" as="sourcePoint" />
            <mxPoint x="36" y="970" as="targetPoint" />
          </mxGeometry>
        </mxCell>
      </root>
    </mxGraphModel>
  </diagram>
</mxfile>
